 http://img18.imageshack.us/img18/4906/returntothehidingplace2.jpg

Country.......: USA
Genre.........: Thriller, Drama, History, War
Date release..: 2011 [World]
Director......: Peter C. Spencer
Writers.......: Peter C. Spencer
Duration......: 124 min.
More..........: http://www.imdb.com/title/tt1691153
Trailer.......:

Pilot :
When the Nazis begin killing Jews in Holland, a group of youth fight to save the lives of the innocent. 

Cats :
John Rhys Davies   	 ...  	Eusi
Mimi Sagadin 	... 	Corrie ten Boom
Craig Robert Young 	... 	Piet Hartog
David Thomas Jenkins 	... 	Hans Poley
Rachel Spencer Hewitt 	... 	Aty van Woerden
Suzy Brack 	... 	Nollie ten Boom van Woerden
Joanie Stewart 	... 	Betsie ten Boom
Stass Klassen 	... 	Colonel von Laeman
Gary Moore 	... 	Lars
Louie Lawless 	... 	Board Member
Steve Christopher 	... 	Laurent Mathijs
Charlie Jensen 	... 	De Vries
Korey Simeone 	... 	Pickwick
Mark Boyd 	... 	Karl
Walt Sloan 	... 	Herman Poley 

Data Technical :
!!! SAMPLE !!!
Audio.....: English
Subtitles.: None
Format                           : AVI
Format/Info                      : Audio Video Interleave
File size                        : 1.37 GiB
Duration                         : 2h 3mn
Overall bit rate                 : 1 589 Kbps
Writing application              : VirtualDubMod 1.5.10.2 (build 2540/release)
Writing library                  : VirtualDubMod build 2540/release
Video
ID                               : 0
Format                           : MPEG-4 Visual
Format profile                   : Advanced Simple@L5
Format settings, BVOP            : Yes
Format settings, QPel            : No
Format settings, GMC             : No warppoints
Format settings, Matrix          : Default (H.263)
Muxing mode                      : Packed bitstream
Codec ID                         : XVID
Codec ID/Hint                    : XviD
Duration                         : 2h 3mn
Bit rate                         : 1 195 Kbps
Width                            : 720 pixels
Height                           : 400 pixels
Display aspect ratio             : 16:9
Frame rate                       : 25.000 fps
Color space                      : YUV
Chroma subsampling               : 4:2:0
Bit depth                        : 8 bits
Scan type                        : Progressive
Bits/(Pixel*Frame)               : 0.166
Stream size                      : 1.03 GiB (75%)
Writing library                  : XviD 64
Audio
ID                               : 1
Format                           : AC-3
Format/Info                      : Audio Coding 3
Mode extension                   : CM (complete main)
Codec ID                         : 2000
Duration                         : 2h 3mn
Bit rate mode                    : Constant
Bit rate                         : 384 Kbps
Channel(s)                       : 6 channels
Channel positions                : Front: L C R, Side: L R, LFE
Sampling rate                    : 48.0 KHz
Bit depth                        : 16 bits
Stream size                      : 340 MiB (24%)
Alignment                        : Split accross interleaves
Interleave, duration             : 40 ms (1.00 video frame)
Interleave, preload duration     : 500 ms

Screen : 
http://img850.imageshack.us/img850/4906/returntothehidingplace2.jpg 
http://img838.imageshack.us/img838/4906/returntothehidingplace2.jpg 
http://img824.imageshack.us/img824/4906/returntothehidingplace2.jpg 
http://img819.imageshack.us/img819/4906/returntothehidingplace2.jpg 
http://img716.imageshack.us/img716/4906/returntothehidingplace2.jpg